# xmcd CD database file
# Copyright (C) 1997 Ti Kan
#
# Track frame offsets:
#  150
#  15345
#  30035
#  49140
#  64995
#  79175
#  97340
#  112150
#  130745
#  150580
#  165445
#  184010
#  206710
#  226190
#  242515
#
# Disc length: 3547 seconds
#
# Revision: 1
# Processed by: cddbd v1.4b41PL1 Copyright (c) Steve Scherf et al.
# Submitted via: CDWizzard Release:4.31
#
DISCID=b80dd90f
DTITLE=Multiple - Country Hits Of The 90's Vol XVI
DYEAR=1900
DGENRE=
TTITLE0=TAKE ME AS I AM
TTITLE1=DOCTOR TIME
TTITLE2=YOU JUST WATCH ME
TTITLE3=WE CAN'T LOVE LIKE THIS ANYMORE
TTITLE4=MI VIDA LOCA
TTITLE5=LITTLE HOUSES
TTITLE6=TEARDROPS
TTITLE7=THER RED STROKES
TTITLE8=GONE COUNTRY
TTITLE9=GIVE ME A RING SOMETIME
TTITLE10=STORM IN THE HEARTLAND
TTITLE11=WHO'S THAT MAN 
TTITLE12=READ MY MIND
TTITLE13=HARD LOVIN' WOMAN
TTITLE14=HOUSE OF LOVE
EXTD=
EXTT0=FAITH HILL
EXTT1=RICK TREVINO
EXTT2=TANYA TUCKER
EXTT3=ALABAMA
EXTT4=PAM TILLIS
EXTT5=DOUG STONE
EXTT6=GEORGE DUCAS
EXTT7=Garth Brooks
EXTT8=ALAN JACKSON
EXTT9=LISA BROKOP
EXTT10=BILLY RAY CYRUS
EXTT11=TOBY KEITH
EXTT12=REBA MCENTIRE
EXTT13=MARK COLLIE
EXTT14=AMY GRANT/VINCE GILL
PLAYORDER=
